<svg width="58" height="60" viewBox="0 0 58 60" fill="none" xmlns="http://www.w3.org/2000/svg">
<path d="M29 3C29.553 3 30 3.447 30 4V6C30 6.553 29.553 7 29 7C28.447 7 28 6.553 28 6V4C28 3.447 28.447 3 29 3Z" fill="#F18D46"/>
<path d="M29 55C29.553 55 30 55.447 30 56V59C30 59.553 29.553 60 29 60C28.447 60 28 59.553 28 59V56C28 55.447 28.447 55 29 55Z" fill="#556080"/>
<path d="M25 49H33V41H25V49Z" fill="#556080"/>
<path d="M25 49H33L31 56H27L25 49Z" fill="#48A0DC"/>
<path d="M13 0C13.553 0 14 0.447 14 1V4C14 4.553 13.553 5 13 5C12.447 5 12 4.553 12 4V1C12 0.447 12.447 0 13 0Z" fill="#F18D46"/>
<path d="M45 0C45.553 0 46 0.447 46 1V4C46 4.553 45.553 5 45 5C44.447 5 44 4.553 44 4V1C44 0.447 44.447 0 45 0Z" fill="#F18D46"/>
<path d="M41 42C40.4477 42 40 42.4477 40 43C40 43.5523 40.4477 44 41 44C41.5523 44 42 43.5523 42 43C42 42.4477 41.5523 42 41 42Z" fill="#F0C419"/>
<path d="M54 47C53.4477 47 53 47.4477 53 48C53 48.5523 53.4477 49 54 49C54.5523 49 55 48.5523 55 48C55 47.4477 54.5523 47 54 47Z" fill="#F0C419"/>
<path d="M12 53C11.4477 53 11 53.4477 11 54C11 54.5523 11.4477 55 12 55C12.5523 55 13 54.5523 13 54C13 53.4477 12.5523 53 12 53Z" fill="#F0C419"/>
<path d="M6 40C5.44772 40 5 40.4477 5 41C5 41.5523 5.44772 42 6 42C6.55228 42 7 41.5523 7 41C7 40.4477 6.55228 40 6 40Z" fill="#F0C419"/>
<path d="M6 1C5.44772 1 5 1.44772 5 2C5 2.55228 5.44772 3 6 3C6.55228 3 7 2.55228 7 2C7 1.44772 6.55228 1 6 1Z" fill="#F0C419"/>
<path d="M37 3C36.4477 3 36 3.44772 36 4C36 4.55228 36.4477 5 37 5C37.5523 5 38 4.55228 38 4C38 3.44772 37.5523 3 37 3Z" fill="#F0C419"/>
<path d="M55 21C54.4477 21 54 21.4477 54 22C54 22.5523 54.4477 23 55 23C55.5523 23 56 22.5523 56 22C56 21.4477 55.5523 21 55 21Z" fill="#F0C419"/>
<path d="M32 13H36V9H32V13Z" fill="#556080"/>
<path d="M16 33L16 10V8H10V10L10 33C10 34.657 11.343 36 13 36C14.657 36 16 34.657 16 33Z" fill="#ECF0F1"/>
<path d="M11 8L15 8V4L11 4V8Z" fill="#38454F"/>
<path d="M48 33V10V8H42V10V33C42 34.657 43.343 36 45 36C46.657 36 48 34.657 48 33Z" fill="#ECF0F1"/>
<path d="M10 31H16C16.553 31 17 30.553 17 30C17 29.447 16.553 29 16 29H10C9.447 29 9 29.447 9 30C9 30.553 9.447 31 10 31Z" fill="#35495E"/>
<path d="M42 31H48C48.553 31 49 30.553 49 30C49 29.447 48.553 29 48 29H42C41.447 29 41 29.447 41 30C41 30.553 41.447 31 42 31Z" fill="#35495E"/>
<path d="M43 8L47 8V4L43 4V8Z" fill="#38454F"/>
<path d="M22 13H26V9H22V13Z" fill="#556080"/>
<path d="M24 41H34V33H24V41Z" fill="#ECF0F1"/>
<path d="M10 10.207L0 4L10 16.917V10.207Z" fill="#35495E"/>
<path d="M16 24.667L22 32.417L22 17.655L16 13.931L16 24.667Z" fill="#35495E"/>
<path d="M48 16.917L58 4L48 10.207V16.917Z" fill="#35495E"/>
<path d="M42 24.667V13.931L36 17.655V32.417L42 24.667Z" fill="#35495E"/>
<path d="M36 33V13H32C32 14.65 30.65 16 29 16C27.35 16 26 14.65 26 13H22V33H36Z" fill="#35495E"/>
<path d="M33 29C32.4477 29 32 29.4477 32 30C32 30.5523 32.4477 31 33 31C33.5523 31 34 30.5523 34 30C34 29.4477 33.5523 29 33 29Z" fill="#8697CB"/>
<path d="M45 20C44.4477 20 44 20.4477 44 21C44 21.5523 44.4477 22 45 22C45.5523 22 46 21.5523 46 21C46 20.4477 45.5523 20 45 20Z" fill="#BDC3C7"/>
<path d="M45 17C44.4477 17 44 17.4477 44 18C44 18.5523 44.4477 19 45 19C45.5523 19 46 18.5523 46 18C46 17.4477 45.5523 17 45 17Z" fill="#BDC3C7"/>
<path d="M45 14C44.4477 14 44 14.4477 44 15C44 15.5523 44.4477 16 45 16C45.5523 16 46 15.5523 46 15C46 14.4477 45.5523 14 45 14Z" fill="#BDC3C7"/>
<path d="M45 11C44.4477 11 44 11.4477 44 12C44 12.5523 44.4477 13 45 13C45.5523 13 46 12.5523 46 12C46 11.4477 45.5523 11 45 11Z" fill="#BDC3C7"/>
<path d="M13 20C12.4477 20 12 20.4477 12 21C12 21.5523 12.4477 22 13 22C13.5523 22 14 21.5523 14 21C14 20.4477 13.5523 20 13 20Z" fill="#BDC3C7"/>
<path d="M13 17C12.4477 17 12 17.4477 12 18C12 18.5523 12.4477 19 13 19C13.5523 19 14 18.5523 14 18C14 17.4477 13.5523 17 13 17Z" fill="#BDC3C7"/>
<path d="M13 14C12.4477 14 12 14.4477 12 15C12 15.5523 12.4477 16 13 16C13.5523 16 14 15.5523 14 15C14 14.4477 13.5523 14 13 14Z" fill="#BDC3C7"/>
<path d="M13 11C12.4477 11 12 11.4477 12 12C12 12.5523 12.4477 13 13 13C13.5523 13 14 12.5523 14 12C14 11.4477 13.5523 11 13 11Z" fill="#BDC3C7"/>
<path d="M29 29C28.4477 29 28 29.4477 28 30C28 30.5523 28.4477 31 29 31C29.5523 31 30 30.5523 30 30C30 29.4477 29.5523 29 29 29Z" fill="#8697CB"/>
<path d="M25 29C24.4477 29 24 29.4477 24 30C24 30.5523 24.4477 31 25 31C25.5523 31 26 30.5523 26 30C26 29.4477 25.5523 29 25 29Z" fill="#8697CB"/>
<path d="M22 28H36V26H22V28Z" fill="#8697CB"/>
<path d="M26 13V9H32V13C32 14.65 30.65 16 29 16C27.35 16 26 14.65 26 13Z" fill="#8697CB"/>
<path d="M27 9H31V6H27V9Z" fill="#38454F"/>
</svg>
