<svg width="60" height="58" viewBox="0 0 60 58" fill="none" xmlns="http://www.w3.org/2000/svg">
<path d="M3 29C3 28.447 3.447 28 4 28H6C6.553 28 7 28.447 7 29C7 29.553 6.553 30 6 30H4C3.447 30 3 29.553 3 29Z" fill="#F18D46"/>
<path d="M55 29C55 28.447 55.447 28 56 28H59C59.553 28 60 28.447 60 29C60 29.553 59.553 30 59 30H56C55.447 30 55 29.553 55 29Z" fill="#556080"/>
<path d="M49 33V25H41V33H49Z" fill="#556080"/>
<path d="M49 33V25L56 27V31L49 33Z" fill="#48A0DC"/>
<path d="M0 45C0 44.447 0.447 44 1 44H4C4.553 44 5 44.447 5 45C5 45.553 4.553 46 4 46H1C0.447 46 0 45.553 0 45Z" fill="#F18D46"/>
<path d="M0 13C0 12.447 0.447 12 1 12H4C4.553 12 5 12.447 5 13C5 13.553 4.553 14 4 14H1C0.447 14 0 13.553 0 13Z" fill="#F18D46"/>
<path d="M42 17C42 17.5523 42.4477 18 43 18C43.5523 18 44 17.5523 44 17C44 16.4477 43.5523 16 43 16C42.4477 16 42 16.4477 42 17Z" fill="#F0C419"/>
<path d="M47 4C47 4.55228 47.4477 5 48 5C48.5523 5 49 4.55228 49 4C49 3.44772 48.5523 3 48 3C47.4477 3 47 3.44772 47 4Z" fill="#F0C419"/>
<path d="M53 46C53 46.5523 53.4477 47 54 47C54.5523 47 55 46.5523 55 46C55 45.4477 54.5523 45 54 45C53.4477 45 53 45.4477 53 46Z" fill="#F0C419"/>
<path d="M40 52C40 52.5523 40.4477 53 41 53C41.5523 53 42 52.5523 42 52C42 51.4477 41.5523 51 41 51C40.4477 51 40 51.4477 40 52Z" fill="#F0C419"/>
<path d="M1 52C1 52.5523 1.44772 53 2 53C2.55228 53 3 52.5523 3 52C3 51.4477 2.55228 51 2 51C1.44772 51 1 51.4477 1 52Z" fill="#F0C419"/>
<path d="M3 21C3 21.5523 3.44772 22 4 22C4.55228 22 5 21.5523 5 21C5 20.4477 4.55228 20 4 20C3.44772 20 3 20.4477 3 21Z" fill="#F0C419"/>
<path d="M21 3C21 3.55228 21.4477 4 22 4C22.5523 4 23 3.55228 23 3C23 2.44772 22.5523 2 22 2C21.4477 2 21 2.44772 21 3Z" fill="#F0C419"/>
<path d="M13 26V22H9V26H13Z" fill="#556080"/>
<path d="M33 42L10 42H8V48H10L33 48C34.657 48 36 46.657 36 45C36 43.343 34.657 42 33 42Z" fill="#ECF0F1"/>
<path d="M8 47L8 43H4L4 47H8Z" fill="#38454F"/>
<path d="M33 10L10 10H8V16L10 16L33 16C34.657 16 36 14.657 36 13C36 11.343 34.657 10 33 10Z" fill="#ECF0F1"/>
<path d="M31 48V42C31 41.447 30.553 41 30 41C29.447 41 29 41.447 29 42V48C29 48.553 29.447 49 30 49C30.553 49 31 48.553 31 48Z" fill="#35495E"/>
<path d="M31 16V10C31 9.447 30.553 9 30 9C29.447 9 29 9.447 29 10V16C29 16.553 29.447 17 30 17C30.553 17 31 16.553 31 16Z" fill="#35495E"/>
<path d="M8 15L8 11H4L4 15H8Z" fill="#38454F"/>
<path d="M13 36V32H9V36H13Z" fill="#556080"/>
<path d="M41 34V24H33V34H41Z" fill="#ECF0F1"/>
<path d="M10.207 48L4 58L16.917 48H10.207Z" fill="#35495E"/>
<path d="M24.667 42L32.417 36H17.655L13.931 42H24.667Z" fill="#35495E"/>
<path d="M16.917 10L4 0L10.207 10L16.917 10Z" fill="#35495E"/>
<path d="M24.667 16L13.931 16L17.655 22L32.417 22L24.667 16Z" fill="#35495E"/>
<path d="M33 22L13 22V26C14.65 26 16 27.35 16 29C16 30.65 14.65 32 13 32V36H33V22Z" fill="#35495E"/>
<path d="M29 25C29 25.5523 29.4477 26 30 26C30.5523 26 31 25.5523 31 25C31 24.4477 30.5523 24 30 24C29.4477 24 29 24.4477 29 25Z" fill="#8697CB"/>
<path d="M20 13C20 13.5523 20.4477 14 21 14C21.5523 14 22 13.5523 22 13C22 12.4477 21.5523 12 21 12C20.4477 12 20 12.4477 20 13Z" fill="#BDC3C7"/>
<path d="M17 13C17 13.5523 17.4477 14 18 14C18.5523 14 19 13.5523 19 13C19 12.4477 18.5523 12 18 12C17.4477 12 17 12.4477 17 13Z" fill="#BDC3C7"/>
<path d="M14 13C14 13.5523 14.4477 14 15 14C15.5523 14 16 13.5523 16 13C16 12.4477 15.5523 12 15 12C14.4477 12 14 12.4477 14 13Z" fill="#BDC3C7"/>
<path d="M11 13C11 13.5523 11.4477 14 12 14C12.5523 14 13 13.5523 13 13C13 12.4477 12.5523 12 12 12C11.4477 12 11 12.4477 11 13Z" fill="#BDC3C7"/>
<path d="M20 45C20 45.5523 20.4477 46 21 46C21.5523 46 22 45.5523 22 45C22 44.4477 21.5523 44 21 44C20.4477 44 20 44.4477 20 45Z" fill="#BDC3C7"/>
<path d="M17 45C17 45.5523 17.4477 46 18 46C18.5523 46 19 45.5523 19 45C19 44.4477 18.5523 44 18 44C17.4477 44 17 44.4477 17 45Z" fill="#BDC3C7"/>
<path d="M14 45C14 45.5523 14.4477 46 15 46C15.5523 46 16 45.5523 16 45C16 44.4477 15.5523 44 15 44C14.4477 44 14 44.4477 14 45Z" fill="#BDC3C7"/>
<path d="M11 45C11 45.5523 11.4477 46 12 46C12.5523 46 13 45.5523 13 45C13 44.4477 12.5523 44 12 44C11.4477 44 11 44.4477 11 45Z" fill="#BDC3C7"/>
<path d="M29 29C29 29.5523 29.4477 30 30 30C30.5523 30 31 29.5523 31 29C31 28.4477 30.5523 28 30 28C29.4477 28 29 28.4477 29 29Z" fill="#8697CB"/>
<path d="M29 33C29 33.5523 29.4477 34 30 34C30.5523 34 31 33.5523 31 33C31 32.4477 30.5523 32 30 32C29.4477 32 29 32.4477 29 33Z" fill="#8697CB"/>
<path d="M28 36L28 22H26L26 36H28Z" fill="#8697CB"/>
<path d="M13 32H9V26H13C14.65 26 16 27.35 16 29C16 30.65 14.65 32 13 32Z" fill="#8697CB"/>
<path d="M9 31V27H6L6 31H9Z" fill="#38454F"/>
</svg>
