<svg width="60" height="58" viewBox="0 0 60 58" fill="none" xmlns="http://www.w3.org/2000/svg">
<path d="M57 29C57 29.553 56.553 30 56 30H54C53.447 30 53 29.553 53 29C53 28.447 53.447 28 54 28H56C56.553 28 57 28.447 57 29Z" fill="#F18D46"/>
<path d="M5 29C5 29.553 4.553 30 4 30H1C0.447 30 0 29.553 0 29C0 28.447 0.447 28 1 28H4C4.553 28 5 28.447 5 29Z" fill="#556080"/>
<path d="M11 25V33H19V25H11Z" fill="#556080"/>
<path d="M11 25V33L4 31V27L11 25Z" fill="#48A0DC"/>
<path d="M60 13C60 13.553 59.553 14 59 14H56C55.447 14 55 13.553 55 13C55 12.447 55.447 12 56 12H59C59.553 12 60 12.447 60 13Z" fill="#F18D46"/>
<path d="M60 45C60 45.553 59.553 46 59 46H56C55.447 46 55 45.553 55 45C55 44.447 55.447 44 56 44H59C59.553 44 60 44.447 60 45Z" fill="#F18D46"/>
<path d="M18 41C18 40.4477 17.5523 40 17 40C16.4477 40 16 40.4477 16 41C16 41.5523 16.4477 42 17 42C17.5523 42 18 41.5523 18 41Z" fill="#F0C419"/>
<path d="M13 54C13 53.4477 12.5523 53 12 53C11.4477 53 11 53.4477 11 54C11 54.5523 11.4477 55 12 55C12.5523 55 13 54.5523 13 54Z" fill="#F0C419"/>
<path d="M7 12C7 11.4477 6.55228 11 6 11C5.44772 11 5 11.4477 5 12C5 12.5523 5.44772 13 6 13C6.55228 13 7 12.5523 7 12Z" fill="#F0C419"/>
<path d="M20 6C20 5.44772 19.5523 5 19 5C18.4477 5 18 5.44772 18 6C18 6.55228 18.4477 7 19 7C19.5523 7 20 6.55228 20 6Z" fill="#F0C419"/>
<path d="M59 6C59 5.44772 58.5523 5 58 5C57.4477 5 57 5.44772 57 6C57 6.55228 57.4477 7 58 7C58.5523 7 59 6.55228 59 6Z" fill="#F0C419"/>
<path d="M57 37C57 36.4477 56.5523 36 56 36C55.4477 36 55 36.4477 55 37C55 37.5523 55.4477 38 56 38C56.5523 38 57 37.5523 57 37Z" fill="#F0C419"/>
<path d="M39 55C39 54.4477 38.5523 54 38 54C37.4477 54 37 54.4477 37 55C37 55.5523 37.4477 56 38 56C38.5523 56 39 55.5523 39 55Z" fill="#F0C419"/>
<path d="M47 32V36H51V32H47Z" fill="#556080"/>
<path d="M27 16H50H52V10H50L27 10C25.343 10 24 11.343 24 13C24 14.657 25.343 16 27 16Z" fill="#ECF0F1"/>
<path d="M52 11V15H56V11H52Z" fill="#38454F"/>
<path d="M27 48H50H52V42H50H27C25.343 42 24 43.343 24 45C24 46.657 25.343 48 27 48Z" fill="#ECF0F1"/>
<path d="M29 10V16C29 16.553 29.447 17 30 17C30.553 17 31 16.553 31 16V10C31 9.447 30.553 9 30 9C29.447 9 29 9.447 29 10Z" fill="#35495E"/>
<path d="M29 42V48C29 48.553 29.447 49 30 49C30.553 49 31 48.553 31 48V42C31 41.447 30.553 41 30 41C29.447 41 29 41.447 29 42Z" fill="#35495E"/>
<path d="M52 43V47H56V43H52Z" fill="#38454F"/>
<path d="M47 22V26H51V22H47Z" fill="#556080"/>
<path d="M19 24V34H27V24H19Z" fill="#ECF0F1"/>
<path d="M49.793 10L56 0L43.083 10H49.793Z" fill="#35495E"/>
<path d="M35.333 16L27.583 22H42.345L46.069 16H35.333Z" fill="#35495E"/>
<path d="M43.083 48L56 58L49.793 48H43.083Z" fill="#35495E"/>
<path d="M35.333 42H46.069L42.345 36H27.583L35.333 42Z" fill="#35495E"/>
<path d="M27 36H47V32C45.35 32 44 30.65 44 29C44 27.35 45.35 26 47 26V22H27V36Z" fill="#35495E"/>
<path d="M31 33C31 32.4477 30.5523 32 30 32C29.4477 32 29 32.4477 29 33C29 33.5523 29.4477 34 30 34C30.5523 34 31 33.5523 31 33Z" fill="#8697CB"/>
<path d="M40 45C40 44.4477 39.5523 44 39 44C38.4477 44 38 44.4477 38 45C38 45.5523 38.4477 46 39 46C39.5523 46 40 45.5523 40 45Z" fill="#BDC3C7"/>
<path d="M43 45C43 44.4477 42.5523 44 42 44C41.4477 44 41 44.4477 41 45C41 45.5523 41.4477 46 42 46C42.5523 46 43 45.5523 43 45Z" fill="#BDC3C7"/>
<path d="M46 45C46 44.4477 45.5523 44 45 44C44.4477 44 44 44.4477 44 45C44 45.5523 44.4477 46 45 46C45.5523 46 46 45.5523 46 45Z" fill="#BDC3C7"/>
<path d="M49 45C49 44.4477 48.5523 44 48 44C47.4477 44 47 44.4477 47 45C47 45.5523 47.4477 46 48 46C48.5523 46 49 45.5523 49 45Z" fill="#BDC3C7"/>
<path d="M40 13C40 12.4477 39.5523 12 39 12C38.4477 12 38 12.4477 38 13C38 13.5523 38.4477 14 39 14C39.5523 14 40 13.5523 40 13Z" fill="#BDC3C7"/>
<path d="M43 13C43 12.4477 42.5523 12 42 12C41.4477 12 41 12.4477 41 13C41 13.5523 41.4477 14 42 14C42.5523 14 43 13.5523 43 13Z" fill="#BDC3C7"/>
<path d="M46 13C46 12.4477 45.5523 12 45 12C44.4477 12 44 12.4477 44 13C44 13.5523 44.4477 14 45 14C45.5523 14 46 13.5523 46 13Z" fill="#BDC3C7"/>
<path d="M49 13C49 12.4477 48.5523 12 48 12C47.4477 12 47 12.4477 47 13C47 13.5523 47.4477 14 48 14C48.5523 14 49 13.5523 49 13Z" fill="#BDC3C7"/>
<path d="M31 29C31 28.4477 30.5523 28 30 28C29.4477 28 29 28.4477 29 29C29 29.5523 29.4477 30 30 30C30.5523 30 31 29.5523 31 29Z" fill="#8697CB"/>
<path d="M31 25C31 24.4477 30.5523 24 30 24C29.4477 24 29 24.4477 29 25C29 25.5523 29.4477 26 30 26C30.5523 26 31 25.5523 31 25Z" fill="#8697CB"/>
<path d="M32 22V36H34V22H32Z" fill="#8697CB"/>
<path d="M47 26H51V32H47C45.35 32 44 30.65 44 29C44 27.35 45.35 26 47 26Z" fill="#8697CB"/>
<path d="M51 27V31H54V27H51Z" fill="#38454F"/>
</svg>
